Coordinates
version=1
nRows=8
nColumns=36
inDegrees=yes

Units are S.I. units (second, meters, Newtons, ...)
If the header above contains a line with 'inDegrees', this indicates whether rotational values are in degrees (yes) or radians (no).

endheader
time	pelvis_tilt	pelvis_list	pelvis_rotation	pelvis_tx	pelvis_ty	pelvis_tz	hip_flexion_r	hip_adduction_r	hip_rotation_r	knee_angle_r	knee_angle_r_beta	ankle_angle_r	subtalar_angle_r	mtp_angle_r	hip_flexion_l	hip_adduction_l	hip_rotation_l	knee_angle_l	knee_angle_l_beta	ankle_angle_l	subtalar_angle_l	mtp_angle_l	lumbar_extension	lumbar_bending	lumbar_rotation	arm_flex_r	arm_add_r	arm_rot_r	elbow_flex_r	pro_sup_r	arm_flex_l	arm_add_l	arm_rot_l	elbow_flex_l	pro_sup_l
      2.66666670	      9.23004746	      5.14743554	     -1.26208701	     -0.10991296	      0.92247988	      0.25406236	      1.42753757	      0.20438298	     -6.33877830	     22.58247477	      0.39413854	     18.80046508	     14.47300598	     -7.49999987	     27.48486753	     -0.64134230	     -6.76425809	      5.92372964	      0.10338859	     -1.48243749	     13.54967748	     -7.49999987	    -13.36505000	     -3.02783861	      2.32170329	     33.15546642	      6.37362204	     71.66063371	    135.56114705	     92.84121424	     32.30472363	      7.02777727	     58.43622317	    131.32261355	     77.41444088
      2.68333330	      9.10008617	      4.92804117	     -1.27403720	     -0.10999746	      0.91808066	      0.25407875	      1.83638738	      0.43701498	     -6.19893172	     23.21713720	      0.40521549	     18.84542573	     14.67479589	     -7.49999987	     27.57163981	     -0.74135042	     -7.06552739	      5.76477806	      0.10061436	     -1.51756873	     13.67302192	     -7.49999987	    -13.36330460	     -2.82547046	      2.38716606	     33.10678323	      6.47003882	     71.37067556	    135.43746211	     97.69250888	     32.35286662	      7.08574752	     58.19533966	    131.16840460	     79.91068706
      2.70000000	      8.96454078	      4.85676878	     -1.38982948	     -0.10987769	      0.91695673	      0.25405006	      2.48861168	      0.44472676	     -6.08398254	     23.71423297	      0.41389144	     19.77593560	     14.44915584	     -7.49999987	     27.79613163	     -0.75800121	     -7.42011623	      5.85482301	      0.10218594	     -1.74218964	     13.17859444	     -7.49999987	    -13.46094822	     -2.85071593	      2.28832384	     33.14391731	      6.56181713	     71.85191957	    135.79605381	     96.31512500	     32.35000739	      7.00719714	     58.34128365	    131.32282187	     78.71046966
      2.71666670	      9.04956361	      4.65452206	     -1.34183910	     -0.11082875	      0.91667514	      0.25471714	      2.59672632	      0.69796783	     -6.02117852	     23.97189143	      0.41838843	     19.90258961	     14.52238765	     -7.49999987	     27.62620253	     -0.87799422	     -7.46319293	      5.73861389	      0.10015771	     -1.88436788	     12.82014441	     -7.49999987	    -13.54014285	     -2.64604422	      2.28000151	     33.39624507	      6.59870802	     71.74080508	    135.74498259	     94.38940830	     32.47911169	      7.01335395	     58.31455758	    131.38093022	     77.42553976
      2.73333330	      8.87664033	      4.46503131	     -1.35434210	     -0.11134572	      0.91629179	      0.25477018	      2.98709044	      0.96907194	     -5.95898664	     24.15623715	      0.42160587	     19.95674049	     14.47996408	     -7.49999987	     27.71556701	     -0.97450952	     -7.67072719	      5.49289807	      0.09586916	     -2.09837026	     12.73667405	     -7.49999987	    -13.54106417	     -2.51638179	      2.25046646	     33.53171817	      6.65357047	     71.52837098	    135.60660187	     97.72364055	     32.47490169	      7.10345837	     58.31170899	    131.33436407	     80.26539976
      2.75000000	      8.90418022	      4.31288918	     -1.52917069	     -0.11015284	      0.91401637	      0.25521731	      3.17784746	      1.16054585	     -5.82823455	     24.34502629	      0.42490087	     20.52153364	     14.34438755	     -7.49999987	     27.65053801	     -1.03549897	     -8.08970598	      5.23186531	      0.09131328	     -2.34584192	     12.45440834	     -7.49999987	    -13.69925656	     -2.42413725	      2.38808505	     33.71959869	      6.63648250	     71.34543062	    135.41392314	     96.44422767	     32.57845379	      7.26565342	     58.62071197	    131.49928030	     79.11389182
      2.76666670	      8.95572126	      4.11628834	     -1.46266431	     -0.10960049	      0.90774188	      0.25540202	      3.26983569	      1.39354351	     -5.89050170	     24.85730644	      0.43384184	     21.14624329	     14.38334837	     -7.49999987	     27.57232572	     -1.05473430	     -8.21570254	      4.91825059	      0.08583967	     -2.31413427	     12.73280593	     -7.49999987	    -13.89253726	     -2.24188308	      2.29495852	     33.89601521	      6.60715969	     70.94383376	    135.33417941	     97.29854293	     32.89112231	      7.30868954	     58.59059067	    131.27055931	     79.69066897
      2.78333330	      8.94259683	      3.80850086	     -1.70675259	     -0.11000772	      0.90518664	      0.25510093	      3.79471020	      1.68706181	     -5.84643535	     25.74715161	      0.44937257	     22.27357501	     13.85710257	     -7.49999987	     27.66122740	     -1.27149450	     -8.20169690	      4.78559207	      0.08352434	     -2.18523851	     12.67259138	     -7.49999987	    -14.18351402	     -2.03745988	      2.17752910	     34.22198712	      6.57475345	     70.80670922	    135.54505256	     96.47010850	     33.29886594	      7.26942957	     58.50813221	    131.40907978	     78.80942230
